# xmcd
#
# Track frame offsets:
# 150
# 42599
# 81895
# 137941
# 187674
# 222934
# 277813
#
# Disc length: 4299 seconds
#
#
# Revision: 1
# Processed by: cddbd v1.5.2PL0 Copyright (c) Steve Scherf et al.
# Submitted via: FreeRIP 2.96 
#
DISCID=5f10c907
DTITLE=Rollins, Sonny - Road Shows, Vol. 1
DYEAR=2008
DGENRE=Jazz
TTITLE0=Best wishes
TTITLE1=More than you know
TTITLE2=Blossom
TTITLE3=Easy living
TTITLE4=Tenor madness
TTITLE5=Nice Lady
TTITLE6=Some enchanted evening
EXTD=YEAR: 2008
EXTT0=
EXTT1=
EXTT2=
EXTT3=
EXTT4=
EXTT5=
EXTT6=
PLAYORDER=
